<svg xmlns="http://www.w3.org/2000/svg" viewBox="0 0 960 490" width="100%" height="100%" font-family="'Noto Sans SC','Microsoft YaHei','PingFang SC','Hiragino Sans GB',sans-serif" font-size="14">
  <text x="20" y="30" font-size="16" font-weight="bold" fill="#94a3b8">插入 scores[3]=300 后: 两个节点 (_Mysize=2)</text>

  <g transform="translate(330, 55)">
    <text x="135" y="0" font-size="12" font-weight="bold" text-anchor="middle" fill="#10b981">map 对象 (ebp-20, 12 字节)</text>

    <rect x="0" y="10" width="90" height="40" rx="4" fill="#94a3b8" fill-opacity="0.08" stroke="#94a3b8" stroke-opacity="0.3" stroke-width="1.5"/>
    <text x="45" y="27" font-size="10" font-weight="bold" text-anchor="middle" fill="#94a3b8">+0 _Proxy</text>
    <text x="45" y="40" font-family="monospace" font-size="8" font-weight="bold" text-anchor="middle" fill="#94a3b8">20 87 92 00</text>

    <rect x="90" y="10" width="90" height="40" rx="4" fill="#10b981" fill-opacity="0.08" stroke="#10b981" stroke-opacity="0.4" stroke-width="1.5"/>
    <text x="135" y="27" font-size="10" font-weight="bold" text-anchor="middle" fill="#10b981">+4 _Myhead</text>
    <text x="135" y="40" font-family="monospace" font-size="8" font-weight="bold" text-anchor="middle" fill="#10b981">D8 6B 92 00</text>

    <rect x="180" y="10" width="90" height="40" rx="4" fill="#3b82f6" fill-opacity="0.08" stroke="#3b82f6" stroke-opacity="0.4" stroke-width="1.5"/>
    <text x="225" y="27" font-size="10" font-weight="bold" text-anchor="middle" fill="#3b82f6">+8 _Mysize</text>
    <text x="225" y="40" font-family="monospace" font-size="8" font-weight="bold" text-anchor="middle" fill="#3b82f6">02 00 00 00</text>
  </g>

  <path d="M 465 105 L 465 121 Q 465 125 461 125 L 44 125 Q 40 125 40 129 L 40 181 Q 40 185 44 185 L 62 185" fill="none" stroke="#10b981" stroke-width="2"/>
  <polygon points="62,181 70,185 62,189" fill="#10b981"/>

  <g transform="translate(70, 155)">
    <text x="360" y="0" font-size="12" font-weight="bold" text-anchor="middle" fill="#fbbf24">哨兵节点 (0x00926BD8, _Isnil=1)</text>

    <rect x="0" y="10" width="90" height="40" rx="4" fill="#94a3b8" fill-opacity="0.08" stroke="#94a3b8" stroke-opacity="0.3" stroke-width="1.5"/>
    <text x="45" y="27" font-size="10" font-weight="bold" text-anchor="middle" fill="#94a3b8">+0 _Left</text>
    <text x="45" y="40" font-family="monospace" font-size="8" font-weight="bold" text-anchor="middle" fill="#94a3b8">48 68 92 00</text>

    <rect x="90" y="10" width="90" height="40" rx="4" fill="#3b82f6" fill-opacity="0.08" stroke="#3b82f6" stroke-opacity="0.5" stroke-width="1.5"/>
    <text x="135" y="27" font-size="10" font-weight="bold" text-anchor="middle" fill="#3b82f6">+4 _Parent</text>
    <text x="135" y="40" font-family="monospace" font-size="8" font-weight="bold" text-anchor="middle" fill="#3b82f6">48 68 92 00</text>

    <rect x="180" y="10" width="90" height="40" rx="4" fill="#94a3b8" fill-opacity="0.08" stroke="#94a3b8" stroke-opacity="0.3" stroke-width="1.5"/>
    <text x="225" y="27" font-size="10" font-weight="bold" text-anchor="middle" fill="#94a3b8">+8 _Right</text>
    <text x="225" y="40" font-family="monospace" font-size="8" font-weight="bold" text-anchor="middle" fill="#94a3b8">48 68 92 00</text>

    <rect x="270" y="10" width="90" height="40" rx="4" fill="#fbbf24" fill-opacity="0.08" stroke="#fbbf24" stroke-opacity="0.4" stroke-width="1.5"/>
    <text x="315" y="27" font-size="10" font-weight="bold" text-anchor="middle" fill="#fbbf24">+C _Color</text>
    <text x="315" y="40" font-family="monospace" font-size="8" font-weight="bold" text-anchor="middle" fill="#fbbf24">01 (黑)</text>

    <rect x="360" y="10" width="90" height="40" rx="4" fill="#fbbf24" fill-opacity="0.08" stroke="#fbbf24" stroke-opacity="0.4" stroke-width="1.5"/>
    <text x="405" y="27" font-size="10" font-weight="bold" text-anchor="middle" fill="#fbbf24">+D _Isnil</text>
    <text x="405" y="40" font-family="monospace" font-size="8" font-weight="bold" text-anchor="middle" fill="#fbbf24">01 (哨兵)</text>

    <rect x="450" y="10" width="90" height="40" rx="4" fill="#94a3b8" fill-opacity="0.08" stroke="#94a3b8" stroke-opacity="0.3" stroke-width="1.5"/>
    <text x="495" y="27" font-size="10" font-weight="bold" text-anchor="middle" fill="#94a3b8">+E padding</text>
    <text x="495" y="40" font-family="monospace" font-size="8" font-weight="bold" text-anchor="middle" fill="#94a3b8">CD CD</text>

    <rect x="540" y="10" width="90" height="40" rx="4" fill="#94a3b8" fill-opacity="0.08" stroke="#94a3b8" stroke-opacity="0.3" stroke-width="1.5"/>
    <text x="585" y="27" font-size="9" font-weight="bold" text-anchor="middle" fill="#94a3b8">+10 _Key (无效)</text>
    <text x="585" y="40" font-family="monospace" font-size="8" font-weight="bold" text-anchor="middle" fill="#94a3b8">CD CD CD CD</text>

    <rect x="630" y="10" width="90" height="40" rx="4" fill="#94a3b8" fill-opacity="0.08" stroke="#94a3b8" stroke-opacity="0.3" stroke-width="1.5"/>
    <text x="675" y="27" font-size="9" font-weight="bold" text-anchor="middle" fill="#94a3b8">+14 _Value (无效)</text>
    <text x="675" y="40" font-family="monospace" font-size="8" font-weight="bold" text-anchor="middle" fill="#94a3b8">CD CD CD CD</text>

    <rect x="732" y="10" width="90" height="40" rx="4" fill="none" stroke="#94a3b8" stroke-opacity="0.3" stroke-width="1.5" stroke-dasharray="5,3"/>
    <text x="777" y="27" font-size="9" font-weight="bold" text-anchor="middle" fill="#94a3b8">+18 Debug guard</text>
    <text x="777" y="40" font-family="monospace" font-size="8" font-weight="bold" text-anchor="middle" fill="#94a3b8">FD FD FD FD</text>
  </g>

  <path d="M 205 205 L 205 221 Q 205 225 201 225 L 44 225 Q 40 225 40 229 L 40 281 Q 40 285 44 285 L 62 285" fill="none" stroke="#3b82f6" stroke-width="2"/>
  <polygon points="62,281 70,285 62,289" fill="#3b82f6"/>

  <g transform="translate(70, 255)">
    <text x="360" y="0" font-size="12" font-weight="bold" text-anchor="middle" fill="#10b981">根节点 (0x00926848, key=7, _Color=黑)</text>

    <rect x="0" y="10" width="90" height="40" rx="4" fill="#10b981" fill-opacity="0.08" stroke="#10b981" stroke-opacity="0.5" stroke-width="1.5"/>
    <text x="45" y="27" font-size="10" font-weight="bold" text-anchor="middle" fill="#10b981">+0 _Left</text>
    <text x="45" y="40" font-family="monospace" font-size="8" font-weight="bold" text-anchor="middle" fill="#10b981">E8 69 92 00</text>

    <rect x="90" y="10" width="90" height="40" rx="4" fill="#94a3b8" fill-opacity="0.08" stroke="#94a3b8" stroke-opacity="0.3" stroke-width="1.5"/>
    <text x="135" y="27" font-size="10" font-weight="bold" text-anchor="middle" fill="#94a3b8">+4 _Parent</text>
    <text x="135" y="40" font-family="monospace" font-size="8" font-weight="bold" text-anchor="middle" fill="#94a3b8">D8 6B 92 00</text>

    <rect x="180" y="10" width="90" height="40" rx="4" fill="#94a3b8" fill-opacity="0.08" stroke="#94a3b8" stroke-opacity="0.3" stroke-width="1.5"/>
    <text x="225" y="27" font-size="10" font-weight="bold" text-anchor="middle" fill="#94a3b8">+8 _Right</text>
    <text x="225" y="40" font-family="monospace" font-size="8" font-weight="bold" text-anchor="middle" fill="#94a3b8">D8 6B 92 00</text>

    <rect x="270" y="10" width="90" height="40" rx="4" fill="#94a3b8" fill-opacity="0.08" stroke="#94a3b8" stroke-opacity="0.3" stroke-width="1.5"/>
    <text x="315" y="27" font-size="10" font-weight="bold" text-anchor="middle" fill="#94a3b8">+C _Color</text>
    <text x="315" y="40" font-family="monospace" font-size="8" font-weight="bold" text-anchor="middle" fill="#94a3b8">01 (黑)</text>

    <rect x="360" y="10" width="90" height="40" rx="4" fill="#94a3b8" fill-opacity="0.08" stroke="#94a3b8" stroke-opacity="0.3" stroke-width="1.5"/>
    <text x="405" y="27" font-size="10" font-weight="bold" text-anchor="middle" fill="#94a3b8">+D _Isnil</text>
    <text x="405" y="40" font-family="monospace" font-size="8" font-weight="bold" text-anchor="middle" fill="#94a3b8">00 (真实)</text>

    <rect x="450" y="10" width="90" height="40" rx="4" fill="#94a3b8" fill-opacity="0.08" stroke="#94a3b8" stroke-opacity="0.3" stroke-width="1.5"/>
    <text x="495" y="27" font-size="10" font-weight="bold" text-anchor="middle" fill="#94a3b8">+E padding</text>
    <text x="495" y="40" font-family="monospace" font-size="8" font-weight="bold" text-anchor="middle" fill="#94a3b8">CD CD</text>

    <rect x="540" y="10" width="90" height="40" rx="4" fill="#10b981" fill-opacity="0.08" stroke="#10b981" stroke-opacity="0.4" stroke-width="1.5"/>
    <text x="585" y="27" font-size="10" font-weight="bold" text-anchor="middle" fill="#10b981">+10 _Key</text>
    <text x="585" y="40" font-family="monospace" font-size="8" font-weight="bold" text-anchor="middle" fill="#10b981">07 00 00 00</text>

    <rect x="630" y="10" width="90" height="40" rx="4" fill="#fbbf24" fill-opacity="0.08" stroke="#fbbf24" stroke-opacity="0.4" stroke-width="1.5"/>
    <text x="675" y="27" font-size="10" font-weight="bold" text-anchor="middle" fill="#fbbf24">+14 _Value</text>
    <text x="675" y="40" font-family="monospace" font-size="8" font-weight="bold" text-anchor="middle" fill="#fbbf24">84 03 00 00</text>

    <rect x="732" y="10" width="90" height="40" rx="4" fill="none" stroke="#94a3b8" stroke-opacity="0.3" stroke-width="1.5" stroke-dasharray="5,3"/>
    <text x="777" y="27" font-size="9" font-weight="bold" text-anchor="middle" fill="#94a3b8">+18 Debug guard</text>
    <text x="777" y="40" font-family="monospace" font-size="8" font-weight="bold" text-anchor="middle" fill="#94a3b8">FD FD FD FD</text>
  </g>

  <path d="M 115 305 L 115 321 Q 115 325 111 325 L 44 325 Q 40 325 40 329 L 40 381 Q 40 385 44 385 L 62 385" fill="none" stroke="#10b981" stroke-width="2"/>
  <polygon points="62,381 70,385 62,389" fill="#10b981"/>

  <g transform="translate(70, 355)">
    <text x="360" y="0" font-size="12" font-weight="bold" text-anchor="middle" fill="#ef4444">新节点 (0x009269E8, key=3, _Color=红)</text>

    <rect x="0" y="10" width="90" height="40" rx="4" fill="#94a3b8" fill-opacity="0.08" stroke="#94a3b8" stroke-opacity="0.3" stroke-width="1.5"/>
    <text x="45" y="27" font-size="10" font-weight="bold" text-anchor="middle" fill="#94a3b8">+0 _Left</text>
    <text x="45" y="40" font-family="monospace" font-size="8" font-weight="bold" text-anchor="middle" fill="#94a3b8">D8 6B 92 00</text>

    <rect x="90" y="10" width="90" height="40" rx="4" fill="#3b82f6" fill-opacity="0.08" stroke="#3b82f6" stroke-opacity="0.5" stroke-width="1.5"/>
    <text x="135" y="27" font-size="10" font-weight="bold" text-anchor="middle" fill="#3b82f6">+4 _Parent</text>
    <text x="135" y="40" font-family="monospace" font-size="8" font-weight="bold" text-anchor="middle" fill="#3b82f6">48 68 92 00</text>

    <rect x="180" y="10" width="90" height="40" rx="4" fill="#94a3b8" fill-opacity="0.08" stroke="#94a3b8" stroke-opacity="0.3" stroke-width="1.5"/>
    <text x="225" y="27" font-size="10" font-weight="bold" text-anchor="middle" fill="#94a3b8">+8 _Right</text>
    <text x="225" y="40" font-family="monospace" font-size="8" font-weight="bold" text-anchor="middle" fill="#94a3b8">D8 6B 92 00</text>

    <rect x="270" y="10" width="90" height="40" rx="4" fill="#94a3b8" fill-opacity="0.08" stroke="#94a3b8" stroke-opacity="0.3" stroke-width="1.5"/>
    <text x="315" y="27" font-size="10" font-weight="bold" text-anchor="middle" fill="#94a3b8">+C _Color</text>
    <text x="315" y="40" font-family="monospace" font-size="8" font-weight="bold" text-anchor="middle" fill="#94a3b8">00 (红)</text>

    <rect x="360" y="10" width="90" height="40" rx="4" fill="#94a3b8" fill-opacity="0.08" stroke="#94a3b8" stroke-opacity="0.3" stroke-width="1.5"/>
    <text x="405" y="27" font-size="10" font-weight="bold" text-anchor="middle" fill="#94a3b8">+D _Isnil</text>
    <text x="405" y="40" font-family="monospace" font-size="8" font-weight="bold" text-anchor="middle" fill="#94a3b8">00 (真实)</text>

    <rect x="450" y="10" width="90" height="40" rx="4" fill="#94a3b8" fill-opacity="0.08" stroke="#94a3b8" stroke-opacity="0.3" stroke-width="1.5"/>
    <text x="495" y="27" font-size="10" font-weight="bold" text-anchor="middle" fill="#94a3b8">+E padding</text>
    <text x="495" y="40" font-family="monospace" font-size="8" font-weight="bold" text-anchor="middle" fill="#94a3b8">CD CD</text>

    <rect x="540" y="10" width="90" height="40" rx="4" fill="#ef4444" fill-opacity="0.08" stroke="#ef4444" stroke-opacity="0.4" stroke-width="1.5"/>
    <text x="585" y="27" font-size="10" font-weight="bold" text-anchor="middle" fill="#ef4444">+10 _Key</text>
    <text x="585" y="40" font-family="monospace" font-size="8" font-weight="bold" text-anchor="middle" fill="#ef4444">03 00 00 00</text>

    <rect x="630" y="10" width="90" height="40" rx="4" fill="#fbbf24" fill-opacity="0.08" stroke="#fbbf24" stroke-opacity="0.4" stroke-width="1.5"/>
    <text x="675" y="27" font-size="10" font-weight="bold" text-anchor="middle" fill="#fbbf24">+14 _Value</text>
    <text x="675" y="40" font-family="monospace" font-size="8" font-weight="bold" text-anchor="middle" fill="#fbbf24">2C 01 00 00</text>

    <rect x="732" y="10" width="90" height="40" rx="4" fill="none" stroke="#94a3b8" stroke-opacity="0.3" stroke-width="1.5" stroke-dasharray="5,3"/>
    <text x="777" y="27" font-size="9" font-weight="bold" text-anchor="middle" fill="#94a3b8">+18 Debug guard</text>
    <text x="777" y="40" font-family="monospace" font-size="8" font-weight="bold" text-anchor="middle" fill="#94a3b8">FD FD FD FD</text>
  </g>
</svg>
